<?xml version="1.0" encoding="iso-8859-1"?>
<!-- Generator: Adobe Illustrator 19.0.0, SVG Export Plug-In . SVG Version: 6.00 Build 0)  -->
<svg version="1.1" id="Layer_1" xmlns="http://www.w3.org/2000/svg" xmlns:xlink="http://www.w3.org/1999/xlink" x="0px" y="0px"
	 viewBox="0 0 512 512" style="enable-background:new 0 0 512 512;" xml:space="preserve">
<g>
	<g>
		<g>
			<path d="M379.332,321.041c-4.48-1.195-9.224,1.485-10.445,6.042c-2.202,8.243-7.108,11.076-13.918,15.002
				c-4.087,2.364-5.487,7.578-3.132,11.665c1.587,2.731,4.454,4.267,7.407,4.267c1.451,0,2.91-0.367,4.258-1.143
				c7.945-4.591,17.852-10.308,21.871-25.378C386.594,326.938,383.889,322.261,379.332,321.041z"/>
			<path d="M298.667,162.133c9.412,0,17.067-7.654,17.067-17.067c0-9.412-7.654-17.067-17.067-17.067
				c-9.404,0-17.067,7.654-17.067,17.067C281.6,154.479,289.263,162.133,298.667,162.133z"/>
			<path d="M213.333,128c-9.404,0-17.067,7.654-17.067,17.067c0,9.412,7.663,17.067,17.067,17.067
				c9.412,0,17.067-7.654,17.067-17.067C230.4,135.654,222.746,128,213.333,128z"/>
			<path d="M379.358,237.568c1.434,0.93,3.038,1.374,4.634,1.374c2.799,0,5.538-1.374,7.168-3.9
				c0.614-0.947,3.686-6.033,3.695-13.193c-0.009-7.134-3.081-12.211-3.695-13.158c-2.526-3.891-7.629-4.958-11.597-2.526
				c-3.934,2.441-5.163,7.68-2.816,11.674c0.009,0.017,1.041,1.775,1.041,4.011c0,2.159-0.93,3.857-1.033,4.045
				C374.298,229.837,375.45,235.034,379.358,237.568z"/>
			<path d="M238.933,187.733c-9.404,0-17.067,7.654-17.067,17.067c0,15.249,11.255,28.792,25.6,32.811v6.323l-6.033,6.033
				c-3.337,3.337-3.337,8.73,0,12.066c3.336,3.337,8.73,3.337,12.066,0l2.5-2.5l2.5,2.5c1.664,1.664,3.849,2.5,6.033,2.5
				c2.185,0,4.369-0.836,6.033-2.5c3.337-3.337,3.337-8.73,0-12.066l-6.033-6.033v-6.323c14.344-4.019,25.6-17.562,25.6-32.811
				c0-9.412-7.654-17.067-17.067-17.067H238.933z M256,221.867c-9.762,0-17.067-9.011-17.067-17.067h34.133
				C273.067,212.693,265.609,221.867,256,221.867z"/>
			<path d="M148.924,47.983c1.399-1.331,2.978-2.5,4.668-3.482c6.596-3.797,14.592-4.378,21.931-1.579
				c4.224,1.647,8.994-0.341,10.846-4.489c3.2-7.168,9.259-12.416,16.623-14.396c7.364-1.971,15.223-0.461,21.581,4.156
				c3.678,2.671,8.798,1.98,11.648-1.527c4.949-6.101,12.151-9.6,19.78-9.6c7.629,0,14.831,3.499,19.78,9.6
				c2.842,3.507,7.953,4.181,11.648,1.527c6.34-4.617,14.199-6.118,21.564-4.147c7.381,1.98,13.449,7.219,16.64,14.379
				c1.852,4.156,6.613,6.153,10.854,4.497c7.322-2.799,15.309-2.236,21.905,1.587c2.185,1.254,4.139,2.816,5.845,4.651
				c1.681,1.818,3.959,2.731,6.255,2.731c2.074,0,4.156-0.751,5.803-2.278c3.456-3.2,3.652-8.602,0.452-12.058
				c-2.859-3.081-6.161-5.726-9.813-7.825c-8.917-5.154-19.311-6.801-29.346-4.821c-5.7-8.508-14.208-14.677-24.175-17.34
				c-9.933-2.671-20.386-1.579-29.585,2.927C276.113,3.755,266.3,0,256,0c-10.3,0-20.113,3.755-27.827,10.505
				c-9.19-4.523-19.652-5.623-29.594-2.944c-9.95,2.662-18.466,8.832-24.158,17.348c-10.061-1.997-20.446-0.341-29.372,4.813
				c-2.85,1.655-5.487,3.627-7.859,5.854c-3.422,3.243-3.576,8.644-0.333,12.066C140.117,51.072,145.51,51.209,148.924,47.983z"/>
			<path d="M467.379,194.048c4.514-9.199,5.598-19.652,2.927-29.602c-1.212-4.557-5.897-7.27-10.445-6.042
				c-4.557,1.229-7.262,5.905-6.033,10.453c1.971,7.373,0.461,15.249-4.147,21.606c-2.654,3.669-1.98,8.781,1.536,11.639
				c6.101,4.941,9.6,12.143,9.591,19.763c0,7.637-3.499,14.848-9.591,19.789c-3.524,2.859-4.19,7.979-1.527,11.648
				c4.608,6.349,6.127,14.208,4.147,21.572c-1.988,7.381-7.228,13.448-14.396,16.64c-4.147,1.843-6.118,6.622-4.489,10.854
				c2.816,7.322,2.236,15.3-1.579,21.905s-10.453,11.11-18.21,12.339c-4.48,0.717-7.612,4.813-7.142,9.327
				c0.819,7.799-1.801,15.369-7.177,20.753c-5.419,5.393-12.945,8.038-20.796,7.211c-4.471-0.461-8.61,2.662-9.31,7.151
				c-1.229,7.748-5.726,14.387-12.314,18.193c-6.622,3.814-14.618,4.395-21.948,1.587c-4.215-1.638-9.003,0.35-10.846,4.497
				c-3.191,7.159-9.25,12.407-16.606,14.379c-7.381,1.988-15.241,0.461-21.606-4.147c-3.678-2.671-8.798-1.997-11.648,1.536
				c-4.941,6.093-12.143,9.591-19.763,9.6c-7.637-0.009-14.848-3.507-19.789-9.6c-2.85-3.533-7.987-4.198-11.648-1.527
				c-6.34,4.608-14.208,6.118-21.572,4.147c-7.373-1.98-13.44-7.228-16.631-14.387c-1.843-4.139-6.613-6.118-10.846-4.497
				c-7.322,2.799-15.317,2.236-21.922-1.57c-6.605-3.823-11.11-10.462-12.339-18.21c-0.708-4.489-4.872-7.612-9.318-7.151
				c-7.791,0.836-15.377-1.801-20.762-7.185c-5.393-5.41-8.021-12.988-7.211-20.787c0.469-4.514-2.671-8.61-7.151-9.318
				c-7.748-1.22-14.379-5.717-18.193-12.322c-3.806-6.605-4.386-14.601-1.587-21.939c1.63-4.233-0.35-9.003-4.489-10.846
				c-7.168-3.191-12.416-9.25-14.396-16.614c-1.963-7.373-0.452-15.241,4.156-21.589c2.654-3.678,1.988-8.789-1.536-11.648
				c-6.101-4.932-9.591-12.143-9.591-19.772c0.009-7.629,3.507-14.839,9.6-19.78c3.524-2.859,4.19-7.979,1.527-11.648
				c-4.608-6.349-6.118-14.217-4.156-21.589c1.22-4.557-1.476-9.233-6.042-10.453c-4.48-1.203-9.225,1.493-10.436,6.042
				c-2.671,9.958-1.57,20.412,2.953,29.602c-6.741,7.706-10.505,17.519-10.513,27.819c0,10.308,3.763,20.122,10.496,27.836
				c-4.506,9.19-5.598,19.644-2.935,29.602c2.662,9.95,8.841,18.458,17.348,24.158c-1.98,10.052-0.324,20.429,4.813,29.355
				c5.163,8.926,13.321,15.539,23.023,18.842c0.683,10.214,4.966,19.814,12.245,27.11c7.287,7.287,16.887,11.571,27.102,12.254
				c3.311,9.685,9.924,17.852,18.85,23.014c8.934,5.146,19.319,6.801,29.355,4.804c5.239,7.825,12.919,13.534,21.854,16.503v16.913
				c-13.662,0-25.045,11.025-25.54,24.644c-0.034,0.35-0.06,0.708-0.06,0.956v25.6c0,4.71,3.814,8.533,8.533,8.533h51.2
				c4.719,0,8.533-3.823,8.533-8.533v-25.6c0-0.247-0.026-0.606-0.06-0.956c-0.495-13.619-11.878-24.644-25.54-24.644v-14.839
				c5.129-0.469,10.155-1.86,14.839-4.164c7.714,6.733,17.519,10.496,27.827,10.505c10.308-0.009,20.122-3.772,27.836-10.513
				c4.685,2.313,9.711,3.695,14.831,4.173v14.839c-13.662,0-25.045,11.025-25.54,24.644c-0.034,0.35-0.06,0.708-0.06,0.956v25.6
				c0,4.71,3.814,8.533,8.533,8.533h51.2c4.719,0,8.533-3.823,8.533-8.533v-25.6c0-0.247-0.026-0.606-0.06-0.956
				c-0.495-13.619-11.878-24.644-25.54-24.644v-16.913c8.934-2.961,16.614-8.678,21.854-16.503
				c10.035,1.98,20.437,0.333,29.363-4.813c8.917-5.154,15.531-13.321,18.842-23.014c10.206-0.691,19.806-4.966,27.11-12.254
				c7.279-7.287,11.563-16.887,12.237-27.102c9.702-3.311,17.86-9.933,23.023-18.859c5.146-8.917,6.793-19.294,4.813-29.338
				c8.499-5.709,14.677-14.217,17.34-24.166c2.68-9.95,1.587-20.403-2.935-29.602c6.733-7.714,10.496-17.527,10.496-27.827
				C477.884,211.576,474.121,201.762,467.379,194.048z M221.824,477.67c0.009,0.213,0.017,0.427,0.043,0.649v16.614h-34.133v-16.614
				c0.026-0.222,0.034-0.435,0.043-0.649c0.102-4.676,3.831-8.337,8.491-8.337h17.067
				C217.993,469.333,221.722,472.994,221.824,477.67z M324.224,477.67c0.009,0.213,0.017,0.427,0.043,0.649v16.614h-34.133v-16.614
				c0.026-0.222,0.034-0.435,0.043-0.649c0.102-4.676,3.831-8.337,8.491-8.337h17.067
				C320.393,469.333,324.122,472.994,324.224,477.67z"/>
			<path d="M96.375,164.634c-11.051,11.034-11.051,22.46-11.051,31.633c0,4.71,3.814,8.533,8.533,8.533s8.533-3.823,8.533-8.533
				c0-7.851,0-13.517,6.05-19.558c3.337-3.336,3.337-8.738,0-12.066C105.105,161.297,99.712,161.306,96.375,164.634z"/>
			<path d="M145.067,102.4c-4.719,0-8.533,3.823-8.533,8.533V128c0,88.09,44.681,179.2,119.467,179.2S375.467,216.09,375.467,128
				v-17.067c0-4.71-3.814-8.533-8.533-8.533s-8.533,3.823-8.533,8.533V128c0,101.487-52.07,162.133-102.4,162.133
				S153.6,229.487,153.6,128v-17.067C153.6,106.223,149.786,102.4,145.067,102.4z"/>
			<path d="M99.601,246.076c-4.54-1.22-9.225,1.476-10.462,6.033c-4.045,15.078,1.664,24.977,6.255,32.922
				c1.579,2.739,4.446,4.267,7.398,4.267c1.451,0,2.918-0.367,4.258-1.135c4.079-2.364,5.487-7.578,3.123-11.665
				c-3.925-6.801-6.767-11.716-4.548-19.968C106.854,251.981,104.149,247.296,99.601,246.076z"/>
			<path d="M404.941,288.162c1.34,0.768,2.807,1.135,4.258,1.135c2.953,0,5.82-1.527,7.398-4.267
				c4.591-7.945,10.3-17.843,6.263-32.913c-1.229-4.548-5.905-7.236-10.453-6.033c-4.548,1.22-7.262,5.905-6.033,10.453
				c2.21,8.243-0.623,13.158-4.557,19.959C399.462,280.585,400.862,285.798,404.941,288.162z"/>
			<path d="M132.659,206.182c-3.959-2.577-9.242-1.459-11.81,2.5c-0.614,0.947-3.703,6.05-3.686,13.175
				c-0.017,7.151,3.072,12.254,3.686,13.193c1.621,2.483,4.292,3.814,7.031,3.814c1.562,0,3.132-0.427,4.565-1.314
				c3.934-2.441,5.146-7.68,2.799-11.674c-0.009-0.017-1.015-1.758-1.015-4.019c0-2.133,0.905-3.823,1.007-4.002
				C137.702,213.922,136.559,208.725,132.659,206.182z"/>
			<path d="M143.096,327.074c-1.212-4.557-5.88-7.253-10.445-6.033c-4.548,1.22-7.253,5.897-6.033,10.453
				c4.045,15.095,13.935,20.796,21.888,25.378c1.34,0.776,2.799,1.143,4.25,1.143c2.953,0,5.828-1.527,7.407-4.267
				c2.355-4.087,0.947-9.301-3.14-11.657C150.229,338.167,145.314,335.334,143.096,327.074z"/>
			<path d="M132.369,278.007c-0.068,1.135-0.196,7.108,3.379,13.261c3.575,6.212,8.789,9.079,9.796,9.591
				c1.22,0.623,2.526,0.913,3.797,0.913c3.029,0,5.948-1.664,7.492-4.54c2.193-4.079,0.623-9.225-3.405-11.511
				c-0.017-0.009-1.766-1.007-2.901-2.995c-1.067-1.826-1.109-3.738-1.118-3.942c0.171-4.634-3.405-8.567-8.055-8.832
				C136.636,269.713,132.625,273.297,132.369,278.007z"/>
			<path d="M492.433,113.434C456.798,77.798,377.25,59.733,256,59.733s-200.798,18.065-236.433,53.7
				c-2.116,2.125-2.978,5.197-2.244,8.107c3.029,12.117,10.112,21.043,20.48,25.813c25.19,11.563,62.199-4.343,76.945-11.716
				c4.215-2.116,5.931-7.236,3.823-11.452c-2.116-4.215-7.236-5.922-11.452-3.814c-25.754,12.877-49.562,17.289-62.182,11.477
				c-4.352-2.005-7.492-5.257-9.523-9.882C69.615,91.989,143.77,76.8,256,76.8s186.385,15.189,220.587,45.167
				c-2.031,4.625-5.171,7.876-9.523,9.882c-12.595,5.803-36.412,1.399-62.182-11.477c-4.215-2.108-9.335-0.401-11.443,3.814
				c-2.116,4.215-0.401,9.335,3.814,11.452c11.034,5.513,34.534,15.804,56.201,15.804c7.305,0,14.404-1.169,20.745-4.088
				c10.368-4.77,17.451-13.696,20.48-25.813C495.411,118.63,494.549,115.558,492.433,113.434z"/>
			<path d="M362.59,278.758c0,0.017,0,2.048-1.118,3.994c-1.075,1.86-2.714,2.867-2.893,2.97c-4.104,2.185-5.709,7.262-3.593,11.409
				c1.502,2.961,4.497,4.659,7.603,4.659c1.306,0,2.628-0.299,3.866-0.93c1.015-0.512,6.221-3.388,9.796-9.574
				c3.567-6.187,3.448-12.134,3.388-13.261c-0.247-4.625-4.198-8.166-8.781-7.97C366.225,270.199,362.547,274.125,362.59,278.758z"
				/>
			<path d="M409.6,196.267c0,4.719,3.814,8.533,8.533,8.533s8.533-3.814,8.533-8.533c0-9.173,0-20.599-11.034-31.625
				c-3.337-3.337-8.73-3.337-12.066,0c-3.337,3.328-3.337,8.73,0,12.066C409.6,182.741,409.6,188.416,409.6,196.267z"/>
			<path d="M334.993,332.305c2.099-4.13,0.452-9.097-3.635-11.281c-4.087-2.202-9.225-0.623-11.511,3.413
				c-0.009,0.026-1.007,1.775-2.953,2.893c-1.86,1.075-3.789,1.126-3.985,1.126c-4.881-0.034-8.576,3.422-8.823,8.081
				c-0.247,4.702,3.362,8.713,8.073,8.969c0.162,0.009,0.418,0.017,0.768,0.017c2.065,0,7.202-0.35,12.501-3.413
				C331.614,338.534,334.481,333.321,334.993,332.305z"/>
			<path d="M290.662,372.25c-4.531-1.212-9.225,1.476-10.445,6.033c-1.229,4.548,1.485,9.224,6.033,10.445
				c3.601,0.964,6.912,1.374,9.958,1.374c9.719,0,16.887-4.13,22.929-7.62l-8.525-14.78
				C303.812,371.618,298.923,374.46,290.662,372.25z"/>
			<path d="M230.4,392.533c4.719,0,8.533-3.823,8.533-8.533s-3.814-8.533-8.533-8.533c-7.859,0-13.534,0-19.567-6.033
				c-3.336-3.336-8.73-3.336-12.066,0c-3.337,3.337-3.337,8.73,0,12.066C209.801,392.533,221.227,392.533,230.4,392.533z"/>
			<path d="M199.834,345.506c4.634-0.247,8.115-4.147,7.979-8.781c-0.145-4.617-4.028-8.269-8.636-8.269h-0.068H199.1
				c-0.077,0-2.065-0.017-4.002-1.135c-1.843-1.067-2.85-2.697-2.953-2.876c-2.176-4.104-7.262-5.726-11.401-3.601
				c-4.198,2.142-5.879,7.279-3.746,11.477c0.521,1.007,3.396,6.221,9.566,9.779c5.308,3.072,10.436,3.422,12.501,3.422
				C199.416,345.523,199.671,345.515,199.834,345.506z"/>
			<path d="M242.816,357.018c0.947,0.623,6.042,3.695,13.184,3.695c7.142,0,12.237-3.072,13.184-3.695
				c3.891-2.526,4.958-7.637,2.517-11.58c-2.441-3.951-7.689-5.18-11.665-2.816c-0.017,0.009-1.775,1.024-4.036,1.024
				c-2.142,0-3.831-0.913-4.019-1.015c-3.942-2.475-9.131-1.323-11.674,2.586C237.739,349.167,238.865,354.458,242.816,357.018z"/>
		</g>
	</g>
</g>
<g>
</g>
<g>
</g>
<g>
</g>
<g>
</g>
<g>
</g>
<g>
</g>
<g>
</g>
<g>
</g>
<g>
</g>
<g>
</g>
<g>
</g>
<g>
</g>
<g>
</g>
<g>
</g>
<g>
</g>
</svg>
