<?xml version="1.0" encoding="UTF-8" standalone="no" ?>
<!DOCTYPE svg PUBLIC "-//W3C//DTD SVG 1.1//EN" "http://www.w3.org/Graphics/SVG/1.1/DTD/svg11.dtd">
<svg xmlns="http://www.w3.org/2000/svg" xmlns:xlink="http://www.w3.org/1999/xlink" version="1.1" width="48" height="48" viewBox="0 0 48 48" xml:space="preserve">
<desc>Created with Fabric.js 4.6.0</desc>
<defs>
</defs>
<g transform="matrix(0.09 0 0 0.09 24.07 24.07)" id="-dsof8rRFwKJyqwcA9tbz"  >
<filter id="SVGID_70" y="-21%" height="142%" x="-21%" width="142%" >
	<feGaussianBlur in="SourceAlpha" stdDeviation="0"></feGaussianBlur>
	<feOffset dx="4" dy="4" result="oBlur" ></feOffset>
	<feFlood flood-color="rgb(0,0,0)" flood-opacity="0.25"/>
	<feComposite in2="oBlur" operator="in" />
	<feMerge>
		<feMergeNode></feMergeNode>
		<feMergeNode in="SourceGraphic"></feMergeNode>
	</feMerge>
</filter>
<g style="filter: url(#SVGID_70);" vector-effect="non-scaling-stroke"   >
		<g transform="matrix(1 0 0 1 112.18 83.39)" id="6emYm-DBdZsimIJErfKZ1"  >
<path style="stroke: none; stroke-width: 1; stroke-dasharray: none; stroke-linecap: butt; stroke-dashoffset: 0; stroke-linejoin: miter; stroke-miterlimit: 4; fill: rgb(0,0,0); fill-rule: nonzero; opacity: 1;" vector-effect="non-scaling-stroke"  transform=" translate(-368.18, -339.39)" d="M 379.332 321.041 C 374.852 319.846 370.108 322.526 368.887 327.08299999999997 C 366.685 335.32599999999996 361.779 338.159 354.969 342.085 C 350.882 344.44899999999996 349.48199999999997 349.66299999999995 351.837 353.75 C 353.424 356.481 356.291 358.017 359.24399999999997 358.017 C 360.695 358.017 362.154 357.65 363.50199999999995 356.874 C 371.44699999999995 352.283 381.3539999999999 346.56600000000003 385.37299999999993 331.49600000000004 C 386.594 326.938 383.889 322.261 379.332 321.041 z" stroke-linecap="round" />
</g>
		<g transform="matrix(1 0 0 1 42.67 -110.93)" id="p6DkbQraAJUB-j33QRrdD"  >
<path style="stroke: none; stroke-width: 1; stroke-dasharray: none; stroke-linecap: butt; stroke-dashoffset: 0; stroke-linejoin: miter; stroke-miterlimit: 4; fill: rgb(0,0,0); fill-rule: nonzero; opacity: 1;" vector-effect="non-scaling-stroke"  transform=" translate(-298.67, -145.07)" d="M 298.667 162.133 C 308.07899999999995 162.133 315.734 154.479 315.734 145.066 C 315.734 135.654 308.08 127.999 298.667 127.999 C 289.263 127.999 281.59999999999997 135.653 281.59999999999997 145.066 C 281.6 154.479 289.263 162.133 298.667 162.133 z" stroke-linecap="round" />
</g>
		<g transform="matrix(1 0 0 1 -42.67 -110.93)" id="Vdulpyl67e5wd6V9Fk24M"  >
<path style="stroke: none; stroke-width: 1; stroke-dasharray: none; stroke-linecap: butt; stroke-dashoffset: 0; stroke-linejoin: miter; stroke-miterlimit: 4; fill: rgb(0,0,0); fill-rule: nonzero; opacity: 1;" vector-effect="non-scaling-stroke"  transform=" translate(-213.33, -145.07)" d="M 213.333 128 C 203.929 128 196.266 135.654 196.266 145.067 C 196.266 154.479 203.929 162.13400000000001 213.333 162.13400000000001 C 222.745 162.13400000000001 230.4 154.48000000000002 230.4 145.067 C 230.4 135.654 222.746 128 213.333 128 z" stroke-linecap="round" />
</g>
		<g transform="matrix(1 0 0 1 129.16 -34.1)" id="p0dQDGAWfW8PsHwvP42YG"  >
<path style="stroke: none; stroke-width: 1; stroke-dasharray: none; stroke-linecap: butt; stroke-dashoffset: 0; stroke-linejoin: miter; stroke-miterlimit: 4; fill: rgb(0,0,0); fill-rule: nonzero; opacity: 1;" vector-effect="non-scaling-stroke"  transform=" translate(-385.16, -221.9)" d="M 379.358 237.568 C 380.79200000000003 238.49800000000002 382.396 238.942 383.992 238.942 C 386.791 238.942 389.53000000000003 237.568 391.16 235.042 C 391.774 234.095 394.846 229.00900000000001 394.855 221.849 C 394.846 214.71499999999997 391.774 209.63799999999998 391.16 208.691 C 388.634 204.8 383.531 203.733 379.56300000000005 206.165 C 375.629 208.606 374.40000000000003 213.845 376.74700000000007 217.839 C 376.7560000000001 217.856 377.78800000000007 219.614 377.78800000000007 221.85 C 377.78800000000007 224.009 376.85800000000006 225.707 376.75500000000005 225.89499999999998 C 374.298 229.837 375.45 235.034 379.358 237.568 z" stroke-linecap="round" />
</g>
		<g transform="matrix(1 0 0 1 0 -29.87)" id="jg2HzISwt6Tz2bAFa6kt1"  >
<path style="stroke: none; stroke-width: 1; stroke-dasharray: none; stroke-linecap: butt; stroke-dashoffset: 0; stroke-linejoin: miter; stroke-miterlimit: 4; fill: rgb(0,0,0); fill-rule: nonzero; opacity: 1;" vector-effect="non-scaling-stroke"  transform=" translate(-256, -226.13)" d="M 238.933 187.733 C 229.529 187.733 221.86599999999999 195.387 221.86599999999999 204.8 C 221.86599999999999 220.049 233.12099999999998 233.592 247.46599999999998 237.61100000000002 L 247.46599999999998 243.93400000000003 L 241.433 249.967 C 238.096 253.304 238.096 258.697 241.433 262.033 C 244.769 265.37 250.16299999999998 265.37 253.499 262.033 L 255.999 259.533 L 258.499 262.033 C 260.163 263.697 262.348 264.533 264.53200000000004 264.533 C 266.71700000000004 264.533 268.90100000000007 263.697 270.56500000000005 262.033 C 273.90200000000004 258.696 273.90200000000004 253.30300000000003 270.56500000000005 249.967 L 264.53200000000004 243.93400000000003 L 264.53200000000004 237.61100000000002 C 278.87600000000003 233.592 290.13200000000006 220.049 290.13200000000006 204.8 C 290.13200000000006 195.388 282.47800000000007 187.733 273.06500000000005 187.733 L 238.933 187.733 z M 256 221.867 C 246.238 221.867 238.933 212.856 238.933 204.79999999999998 L 273.066 204.79999999999998 C 273.067 212.693 265.609 221.867 256 221.867 z" stroke-linecap="round" />
</g>
		<g transform="matrix(1 0 0 1 0.77 -230.05)" id="6Jo0Sl68jKzn1RkvuRihe"  >
<path style="stroke: none; stroke-width: 1; stroke-dasharray: none; stroke-linecap: butt; stroke-dashoffset: 0; stroke-linejoin: miter; stroke-miterlimit: 4; fill: rgb(0,0,0); fill-rule: nonzero; opacity: 1;" vector-effect="non-scaling-stroke"  transform=" translate(-256.77, -25.95)" d="M 148.924 47.983 C 150.323 46.651999999999994 151.90200000000002 45.483 153.592 44.501 C 160.18800000000002 40.704 168.18400000000003 40.123 175.52300000000002 42.922 C 179.747 44.568999999999996 184.51700000000002 42.580999999999996 186.36900000000003 38.433 C 189.56900000000002 31.265 195.62800000000004 26.017 202.99200000000002 24.037 C 210.35600000000002 22.066 218.21500000000003 23.576 224.573 28.192999999999998 C 228.251 30.863999999999997 233.371 30.173 236.221 26.665999999999997 C 241.17000000000002 20.564999999999998 248.372 17.065999999999995 256.001 17.065999999999995 C 263.63 17.065999999999995 270.832 20.564999999999994 275.78099999999995 26.665999999999997 C 278.62299999999993 30.173 283.7339999999999 30.846999999999998 287.429 28.192999999999998 C 293.76899999999995 23.575999999999997 301.628 22.074999999999996 308.993 24.046 C 316.374 26.026 322.442 31.265 325.633 38.425 C 327.48499999999996 42.580999999999996 332.246 44.577999999999996 336.48699999999997 42.922 C 343.80899999999997 40.123 351.796 40.686 358.39199999999994 44.509 C 360.57699999999994 45.763 362.53099999999995 47.325 364.23699999999997 49.16 C 365.91799999999995 50.977999999999994 368.19599999999997 51.891 370.49199999999996 51.891 C 372.566 51.891 374.64799999999997 51.14 376.29499999999996 49.613 C 379.751 46.413 379.94699999999995 41.010999999999996 376.74699999999996 37.555 C 373.888 34.474 370.58599999999996 31.829 366.93399999999997 29.73 C 358.017 24.576 347.623 22.929000000000002 337.58799999999997 24.909 C 331.888 16.401 323.37999999999994 10.232 313.41299999999995 7.568999999999999 C 303.47999999999996 4.898 293.02699999999993 5.989999999999999 283.828 10.495999999999999 C 276.113 3.755 266.3 0 256 0 C 245.7 0 235.887 3.755 228.173 10.505 C 218.983 5.982000000000001 208.52100000000002 4.882000000000001 198.579 7.561000000000001 C 188.62900000000002 10.223 180.113 16.393 174.421 24.909 C 164.35999999999999 22.912 153.975 24.567999999999998 145.04899999999998 29.721999999999998 C 142.19899999999998 31.377 139.56199999999998 33.349 137.18999999999997 35.576 C 133.76799999999997 38.819 133.61399999999998 44.22 136.85699999999997 47.642 C 140.117 51.072 145.51 51.209 148.924 47.983 z" stroke-linecap="round" />
</g>
		<g transform="matrix(1 0 0 1 -0.01 79.06)" id="ogDMTer1YYbbmzpcSOPbn"  >
<path style="stroke: none; stroke-width: 1; stroke-dasharray: none; stroke-linecap: butt; stroke-dashoffset: 0; stroke-linejoin: miter; stroke-miterlimit: 4; fill: rgb(0,0,0); fill-rule: nonzero; opacity: 1;" vector-effect="non-scaling-stroke"  transform=" translate(-255.99, -335.06)" d="M 467.379 194.048 C 471.89300000000003 184.849 472.97700000000003 174.39600000000002 470.30600000000004 164.446 C 469.09400000000005 159.889 464.40900000000005 157.176 459.86100000000005 158.404 C 455.30400000000003 159.633 452.59900000000005 164.309 453.82800000000003 168.857 C 455.79900000000004 176.23 454.28900000000004 184.106 449.68100000000004 190.463 C 447.02700000000004 194.132 447.701 199.244 451.21700000000004 202.102 C 457.31800000000004 207.043 460.81700000000006 214.245 460.80800000000005 221.865 C 460.80800000000005 229.502 457.309 236.71300000000002 451.21700000000004 241.654 C 447.69300000000004 244.513 447.02700000000004 249.633 449.69000000000005 253.302 C 454.29800000000006 259.651 455.81700000000006 267.51 453.83700000000005 274.87399999999997 C 451.84900000000005 282.255 446.60900000000004 288.32199999999995 439.44100000000003 291.51399999999995 C 435.29400000000004 293.35699999999997 433.32300000000004 298.13599999999997 434.95200000000006 302.36799999999994 C 437.76800000000003 309.68999999999994 437.18800000000005 317.66799999999995 433.37300000000005 324.2729999999999 C 429.55800000000005 330.8779999999999 422.9200000000001 335.3829999999999 415.16300000000007 336.6119999999999 C 410.68300000000005 337.3289999999999 407.55100000000004 341.4249999999999 408.0210000000001 345.9389999999999 C 408.8400000000001 353.7379999999999 406.2200000000001 361.3079999999999 400.84400000000005 366.6919999999999 C 395.42500000000007 372.08499999999987 387.89900000000006 374.7299999999999 380.04800000000006 373.9029999999999 C 375.57700000000006 373.4419999999999 371.43800000000005 376.5649999999999 370.73800000000006 381.0539999999999 C 369.50900000000007 388.8019999999999 365.01200000000006 395.4409999999999 358.42400000000004 399.2469999999999 C 351.802 403.0609999999999 343.80600000000004 403.6419999999999 336.47600000000006 400.8339999999999 C 332.2610000000001 399.1959999999999 327.47300000000007 401.1839999999999 325.63000000000005 405.3309999999999 C 322.4390000000001 412.4899999999999 316.38000000000005 417.7379999999999 309.02400000000006 419.7099999999999 C 301.64300000000003 421.6979999999999 293.7830000000001 420.17099999999994 287.41800000000006 415.56299999999993 C 283.74000000000007 412.89199999999994 278.62000000000006 413.5659999999999 275.77000000000004 417.09899999999993 C 270.82900000000006 423.19199999999995 263.62700000000007 426.68999999999994 256.00700000000006 426.69899999999996 C 248.37000000000006 426.68999999999994 241.15900000000005 423.19199999999995 236.21800000000007 417.09899999999993 C 233.36800000000008 413.5659999999999 228.23100000000008 412.90099999999995 224.57000000000008 415.57199999999995 C 218.23000000000008 420.17999999999995 210.36200000000008 421.68999999999994 202.99800000000008 419.71899999999994 C 195.62500000000009 417.7389999999999 189.55800000000008 412.49099999999993 186.36700000000008 405.33199999999994 C 184.5240000000001 401.1929999999999 179.75400000000008 399.21399999999994 175.52100000000007 400.8349999999999 C 168.19900000000007 403.6339999999999 160.20400000000006 403.0709999999999 153.59900000000007 399.26499999999993 C 146.99400000000009 395.44199999999995 142.4890000000001 388.80299999999994 141.26000000000008 381.05499999999995 C 140.55200000000008 376.566 136.3880000000001 373.4429999999999 131.94200000000006 373.90399999999994 C 124.15100000000007 374.73999999999995 116.56500000000007 372.10299999999995 111.18000000000006 366.71899999999994 C 105.78700000000006 361.3089999999999 103.15900000000006 353.73099999999994 103.96900000000007 345.93199999999996 C 104.43800000000006 341.41799999999995 101.29800000000006 337.32199999999995 96.81800000000007 336.614 C 89.07000000000006 335.39399999999995 82.43900000000006 330.897 78.62500000000007 324.292 C 74.81900000000007 317.68699999999995 74.23900000000008 309.691 77.03800000000007 302.35299999999995 C 78.66800000000006 298.11999999999995 76.68800000000007 293.34999999999997 72.54900000000006 291.50699999999995 C 65.38100000000006 288.316 60.13300000000007 282.25699999999995 58.15300000000006 274.893 C 56.19000000000006 267.52 57.701000000000064 259.652 62.30900000000006 253.30399999999997 C 64.96300000000006 249.62599999999998 64.29700000000007 244.515 60.77300000000006 241.65599999999998 C 54.67200000000006 236.724 51.18200000000006 229.51299999999998 51.18200000000006 221.884 C 51.19100000000006 214.255 54.68900000000006 207.045 60.78200000000006 202.10399999999998 C 64.30600000000005 199.24499999999998 64.97200000000007 194.12499999999997 62.30900000000006 190.456 C 57.701000000000064 184.107 56.19100000000006 176.23899999999998 58.15300000000006 168.867 C 59.37300000000006 164.31 56.67700000000006 159.634 52.11100000000006 158.414 C 47.63100000000006 157.21099999999998 42.88600000000006 159.90699999999998 41.67500000000006 164.456 C 39.00400000000006 174.414 40.10500000000006 184.868 44.628000000000064 194.058 C 37.887000000000064 201.76399999999998 34.12300000000006 211.577 34.115000000000066 221.87699999999998 C 34.115000000000066 232.18499999999997 37.878000000000064 241.99899999999997 44.61100000000007 249.71299999999997 C 40.10500000000007 258.90299999999996 39.01300000000007 269.35699999999997 41.676000000000066 279.31499999999994 C 44.338000000000065 289.26499999999993 50.51700000000007 297.7729999999999 59.024000000000065 303.47299999999996 C 57.04400000000007 313.525 58.70000000000007 323.90199999999993 63.83700000000007 332.828 C 69.00000000000007 341.75399999999996 77.15800000000007 348.36699999999996 86.86000000000007 351.66999999999996 C 87.54300000000008 361.88399999999996 91.82600000000006 371.484 99.10500000000008 378.78 C 106.39200000000008 386.06699999999995 115.99200000000008 390.351 126.20700000000008 391.034 C 129.5180000000001 400.719 136.13100000000009 408.88599999999997 145.05700000000007 414.048 C 153.99100000000007 419.194 164.37600000000006 420.849 174.41200000000006 418.852 C 179.65100000000007 426.67699999999996 187.33100000000007 432.38599999999997 196.26600000000008 435.35499999999996 L 196.26600000000008 452.268 C 182.60400000000007 452.268 171.22100000000006 463.29299999999995 170.72600000000008 476.912 C 170.6920000000001 477.262 170.66600000000008 477.62 170.66600000000008 477.868 L 170.66600000000008 503.468 C 170.66600000000008 508.178 174.48000000000008 512.001 179.19900000000007 512.001 L 230.39900000000006 512.001 C 235.11800000000005 512.001 238.93200000000004 508.178 238.93200000000004 503.46799999999996 L 238.93200000000004 477.86799999999994 C 238.93200000000004 477.6209999999999 238.90600000000003 477.26199999999994 238.87200000000004 476.9119999999999 C 238.37700000000004 463.2929999999999 226.99400000000003 452.2679999999999 213.33200000000005 452.2679999999999 L 213.33200000000005 437.4289999999999 C 218.46100000000004 436.9599999999999 223.48700000000005 435.5689999999999 228.17100000000005 433.26499999999993 C 235.88500000000005 439.99799999999993 245.69000000000005 443.7609999999999 255.99800000000005 443.7699999999999 C 266.30600000000004 443.7609999999999 276.12000000000006 439.99799999999993 283.83400000000006 433.25699999999995 C 288.51900000000006 435.56999999999994 293.5450000000001 436.95199999999994 298.6650000000001 437.42999999999995 L 298.6650000000001 452.26899999999995 C 285.0030000000001 452.26899999999995 273.62000000000006 463.2939999999999 273.12500000000006 476.91299999999995 C 273.09100000000007 477.263 273.06500000000005 477.621 273.06500000000005 477.86899999999997 L 273.06500000000005 503.469 C 273.06500000000005 508.179 276.8790000000001 512.002 281.59800000000007 512.002 L 332.79800000000006 512.002 C 337.51700000000005 512.002 341.3310000000001 508.179 341.3310000000001 503.46899999999994 L 341.3310000000001 477.8689999999999 C 341.3310000000001 477.6219999999999 341.30500000000006 477.2629999999999 341.2710000000001 476.9129999999999 C 340.77600000000007 463.29399999999987 329.3930000000001 452.2689999999999 315.73100000000005 452.2689999999999 L 315.73100000000005 435.3559999999999 C 324.6650000000001 432.39499999999987 332.345 426.6779999999999 337.58500000000004 418.8529999999999 C 347.62000000000006 420.8329999999999 358.02200000000005 419.1859999999999 366.94800000000004 414.0399999999999 C 375.865 408.8859999999999 382.47900000000004 400.7189999999999 385.79 391.0259999999999 C 395.99600000000004 390.3349999999999 405.596 386.0599999999999 412.90000000000003 378.7719999999999 C 420.17900000000003 371.4849999999999 424.463 361.8849999999999 425.13700000000006 351.6699999999999 C 434.83900000000006 348.3589999999999 442.99700000000007 341.7369999999999 448.1600000000001 332.8109999999999 C 453.3060000000001 323.89399999999995 454.9530000000001 313.51699999999994 452.97300000000007 303.4729999999999 C 461.4720000000001 297.7639999999999 467.6500000000001 289.2559999999999 470.31300000000005 279.3069999999999 C 472.99300000000005 269.3569999999999 471.90000000000003 258.9039999999999 467.37800000000004 249.7049999999999 C 474.11100000000005 241.9909999999999 477.874 232.17799999999988 477.874 221.8779999999999 C 477.884 211.576 474.121 201.762 467.379 194.048 z M 221.824 477.67 C 221.833 477.88300000000004 221.841 478.09700000000004 221.86700000000002 478.319 L 221.86700000000002 494.933 L 187.734 494.933 L 187.734 478.319 C 187.76000000000002 478.09700000000004 187.768 477.884 187.77700000000002 477.67 C 187.87900000000002 472.994 191.608 469.333 196.26800000000003 469.333 L 213.33500000000004 469.333 C 217.993 469.333 221.722 472.994 221.824 477.67 z M 324.224 477.67 C 324.233 477.88300000000004 324.241 478.09700000000004 324.267 478.319 L 324.267 494.933 L 290.134 494.933 L 290.134 478.319 C 290.16 478.09700000000004 290.168 477.884 290.177 477.67 C 290.279 472.994 294.00800000000004 469.333 298.668 469.333 L 315.735 469.333 C 320.393 469.333 324.122 472.994 324.224 477.67 z" stroke-linecap="round" />
</g>
		<g transform="matrix(1 0 0 1 -157.87 -72.53)" id="v4FTyF4bTti2ZuafKePNn"  >
<path style="stroke: none; stroke-width: 1; stroke-dasharray: none; stroke-linecap: butt; stroke-dashoffset: 0; stroke-linejoin: miter; stroke-miterlimit: 4; fill: rgb(0,0,0); fill-rule: nonzero; opacity: 1;" vector-effect="non-scaling-stroke"  transform=" translate(-98.13, -183.47)" d="M 96.375 164.634 C 85.324 175.66799999999998 85.324 187.094 85.324 196.267 C 85.324 200.977 89.138 204.79999999999998 93.857 204.79999999999998 C 98.576 204.79999999999998 102.39 200.97699999999998 102.39 196.267 C 102.39 188.416 102.39 182.75 108.44 176.709 C 111.777 173.373 111.777 167.971 108.44 164.643 C 105.105 161.297 99.712 161.306 96.375 164.634 z" stroke-linecap="round" />
</g>
		<g transform="matrix(1 0 0 1 0 -51.2)" id="VwbIbTM7XvcS-msxGvHLm"  >
<path style="stroke: none; stroke-width: 1; stroke-dasharray: none; stroke-linecap: butt; stroke-dashoffset: 0; stroke-linejoin: miter; stroke-miterlimit: 4; fill: rgb(0,0,0); fill-rule: nonzero; opacity: 1;" vector-effect="non-scaling-stroke"  transform=" translate(-256, -204.8)" d="M 145.067 102.4 C 140.348 102.4 136.53400000000002 106.223 136.53400000000002 110.933 L 136.53400000000002 128 C 136.53400000000002 216.09 181.21500000000003 307.2 256.00100000000003 307.2 C 330.78700000000003 307.2 375.467 216.09 375.467 128 L 375.467 110.93299999999999 C 375.467 106.223 371.65299999999996 102.39999999999999 366.93399999999997 102.39999999999999 C 362.215 102.39999999999999 358.40099999999995 106.22299999999998 358.40099999999995 110.93299999999999 L 358.40099999999995 128 C 358.40099999999995 229.487 306.33099999999996 290.13300000000004 256.001 290.13300000000004 C 205.671 290.13300000000004 153.6 229.487 153.6 128 L 153.6 110.93299999999999 C 153.6 106.223 149.786 102.4 145.067 102.4 z" stroke-linecap="round" />
</g>
		<g transform="matrix(1 0 0 1 -156.46 11.54)" id="Zt9c3SioBE1Ax758l3Wzf"  >
<path style="stroke: none; stroke-width: 1; stroke-dasharray: none; stroke-linecap: butt; stroke-dashoffset: 0; stroke-linejoin: miter; stroke-miterlimit: 4; fill: rgb(0,0,0); fill-rule: nonzero; opacity: 1;" vector-effect="non-scaling-stroke"  transform=" translate(-99.54, -267.54)" d="M 99.601 246.076 C 95.06099999999999 244.856 90.376 247.552 89.139 252.10899999999998 C 85.094 267.18699999999995 90.803 277.08599999999996 95.39399999999999 285.03099999999995 C 96.97299999999998 287.7699999999999 99.83999999999999 289.29799999999994 102.79199999999999 289.29799999999994 C 104.24299999999998 289.29799999999994 105.71 288.9309999999999 107.04999999999998 288.16299999999995 C 111.12899999999998 285.799 112.53699999999998 280.585 110.17299999999999 276.49799999999993 C 106.24799999999999 269.69699999999995 103.40599999999999 264.7819999999999 105.62499999999999 256.5299999999999 C 106.854 251.981 104.149 247.296 99.601 246.076 z" stroke-linecap="round" />
</g>
		<g transform="matrix(1 0 0 1 156.45 11.55)" id="0Rq37mdW_plwaNvobxwPs"  >
<path style="stroke: none; stroke-width: 1; stroke-dasharray: none; stroke-linecap: butt; stroke-dashoffset: 0; stroke-linejoin: miter; stroke-miterlimit: 4; fill: rgb(0,0,0); fill-rule: nonzero; opacity: 1;" vector-effect="non-scaling-stroke"  transform=" translate(-412.45, -267.55)" d="M 404.941 288.162 C 406.28099999999995 288.92999999999995 407.748 289.29699999999997 409.19899999999996 289.29699999999997 C 412.15199999999993 289.29699999999997 415.01899999999995 287.77 416.597 285.03 C 421.188 277.085 426.897 267.18699999999995 422.85999999999996 252.11699999999996 C 421.631 247.56899999999996 416.955 244.88099999999997 412.407 246.08399999999997 C 407.859 247.30399999999997 405.145 251.98899999999998 406.37399999999997 256.537 C 408.58399999999995 264.78 405.751 269.695 401.81699999999995 276.496 C 399.462 280.585 400.862 285.798 404.941 288.162 z" stroke-linecap="round" />
</g>
		<g transform="matrix(1 0 0 1 -129.15 -34.17)" id="pwxF4quI2mxhN1-rndv5q"  >
<path style="stroke: none; stroke-width: 1; stroke-dasharray: none; stroke-linecap: butt; stroke-dashoffset: 0; stroke-linejoin: miter; stroke-miterlimit: 4; fill: rgb(0,0,0); fill-rule: nonzero; opacity: 1;" vector-effect="non-scaling-stroke"  transform=" translate(-126.85, -221.83)" d="M 132.659 206.182 C 128.7 203.605 123.41699999999999 204.72299999999998 120.84899999999999 208.682 C 120.23499999999999 209.629 117.14599999999999 214.732 117.16299999999998 221.857 C 117.14599999999999 229.008 120.23499999999999 234.111 120.84899999999999 235.05 C 122.46999999999998 237.53300000000002 125.14099999999999 238.864 127.88 238.864 C 129.442 238.864 131.012 238.437 132.445 237.55 C 136.379 235.109 137.59099999999998 229.87 135.244 225.876 C 135.235 225.859 134.229 224.118 134.229 221.857 C 134.229 219.724 135.13400000000001 218.034 135.23600000000002 217.855 C 137.702 213.922 136.559 208.725 132.659 206.182 z" stroke-linecap="round" />
</g>
		<g transform="matrix(1 0 0 1 -112.19 83.38)" id="9StmrTB6gFJQE0-UKAJeI"  >
<path style="stroke: none; stroke-width: 1; stroke-dasharray: none; stroke-linecap: butt; stroke-dashoffset: 0; stroke-linejoin: miter; stroke-miterlimit: 4; fill: rgb(0,0,0); fill-rule: nonzero; opacity: 1;" vector-effect="non-scaling-stroke"  transform=" translate(-143.81, -339.38)" d="M 143.096 327.074 C 141.88400000000001 322.517 137.216 319.821 132.651 321.041 C 128.103 322.261 125.39800000000001 326.938 126.61800000000001 331.49399999999997 C 130.663 346.589 140.553 352.28999999999996 148.506 356.87199999999996 C 149.846 357.64799999999997 151.305 358.01499999999993 152.756 358.01499999999993 C 155.709 358.01499999999993 158.584 356.48799999999994 160.163 353.74799999999993 C 162.518 349.66099999999994 161.11 344.44699999999995 157.02300000000002 342.09099999999995 C 150.229 338.167 145.314 335.334 143.096 327.074 z" stroke-linecap="round" />
</g>
		<g transform="matrix(1 0 0 1 -110.91 29.86)" id="W0yCJfCHI2w3mk2-TmJEi"  >
<path style="stroke: none; stroke-width: 1; stroke-dasharray: none; stroke-linecap: butt; stroke-dashoffset: 0; stroke-linejoin: miter; stroke-miterlimit: 4; fill: rgb(0,0,0); fill-rule: nonzero; opacity: 1;" vector-effect="non-scaling-stroke"  transform=" translate(-145.09, -285.86)" d="M 132.369 278.007 C 132.301 279.142 132.173 285.115 135.748 291.26800000000003 C 139.32299999999998 297.48 144.53699999999998 300.34700000000004 145.54399999999998 300.85900000000004 C 146.76399999999998 301.482 148.07 301.77200000000005 149.34099999999998 301.77200000000005 C 152.36999999999998 301.77200000000005 155.289 300.10800000000006 156.83299999999997 297.232 C 159.02599999999998 293.153 157.45599999999996 288.007 153.42799999999997 285.721 C 153.41099999999997 285.712 151.66199999999998 284.714 150.52699999999996 282.726 C 149.45999999999995 280.9 149.41799999999995 278.988 149.40899999999996 278.784 C 149.57999999999996 274.15 146.00399999999996 270.217 141.35399999999996 269.952 C 136.636 269.713 132.625 273.297 132.369 278.007 z" stroke-linecap="round" />
</g>
		<g transform="matrix(1 0 0 1 0 -150.41)" id="MjRU_h9FAFNEdJfzTDVhB"  >
<path style="stroke: none; stroke-width: 1; stroke-dasharray: none; stroke-linecap: butt; stroke-dashoffset: 0; stroke-linejoin: miter; stroke-miterlimit: 4; fill: rgb(0,0,0); fill-rule: nonzero; opacity: 1;" vector-effect="non-scaling-stroke"  transform=" translate(-256, -105.59)" d="M 492.433 113.434 C 456.798 77.798 377.25 59.733 256 59.733 C 134.75 59.733 55.202 77.798 19.567000000000007 113.43299999999999 C 17.451000000000008 115.55799999999999 16.589000000000006 118.63 17.323000000000008 121.53999999999999 C 20.352000000000007 133.65699999999998 27.43500000000001 142.583 37.80300000000001 147.35299999999998 C 62.99300000000001 158.91599999999997 100.00200000000001 143.01 114.748 135.63699999999997 C 118.96300000000001 133.52099999999996 120.679 128.40099999999998 118.571 124.18499999999997 C 116.455 119.96999999999997 111.335 118.26299999999998 107.119 120.37099999999998 C 81.365 133.248 57.557 137.65999999999997 44.937 131.84799999999998 C 40.584999999999994 129.843 37.445 126.59099999999998 35.414 121.96599999999998 C 69.615 91.989 143.77 76.8 256 76.8 C 368.23 76.8 442.385 91.989 476.587 121.967 C 474.556 126.592 471.416 129.843 467.06399999999996 131.849 C 454.46899999999994 137.652 430.652 133.248 404.88199999999995 120.37199999999999 C 400.667 118.26399999999998 395.54699999999997 119.97099999999999 393.43899999999996 124.18599999999998 C 391.323 128.40099999999998 393.03799999999995 133.521 397.253 135.63799999999998 C 408.287 141.15099999999998 431.787 151.44199999999998 453.454 151.44199999999998 C 460.759 151.44199999999998 467.858 150.27299999999997 474.199 147.35399999999998 C 484.567 142.58399999999997 491.65000000000003 133.658 494.67900000000003 121.54099999999998 C 495.411 118.63 494.549 115.558 492.433 113.434 z" stroke-linecap="round" />
</g>
		<g transform="matrix(1 0 0 1 110.86 29.92)" id="2qj9Q6qCmuky9y9WL_KFk"  >
<path style="stroke: none; stroke-width: 1; stroke-dasharray: none; stroke-linecap: butt; stroke-dashoffset: 0; stroke-linejoin: miter; stroke-miterlimit: 4; fill: rgb(0,0,0); fill-rule: nonzero; opacity: 1;" vector-effect="non-scaling-stroke"  transform=" translate(-366.86, -285.92)" d="M 362.59 278.758 C 362.59 278.775 362.59 280.806 361.472 282.752 C 360.397 284.612 358.758 285.619 358.579 285.72200000000004 C 354.475 287.90700000000004 352.87 292.98400000000004 354.986 297.13100000000003 C 356.488 300.09200000000004 359.483 301.79 362.589 301.79 C 363.895 301.79 365.217 301.49100000000004 366.455 300.86 C 367.46999999999997 300.348 372.676 297.47200000000004 376.251 291.286 C 379.818 285.099 379.69899999999996 279.152 379.63899999999995 278.025 C 379.39199999999994 273.4 375.441 269.859 370.85799999999995 270.05499999999995 C 366.225 270.199 362.547 274.125 362.59 278.758 z" stroke-linecap="round" />
</g>
		<g transform="matrix(1 0 0 1 157.86 -72.53)" id="4UcdWxMdQ2ElNpY6JxT3U"  >
<path style="stroke: none; stroke-width: 1; stroke-dasharray: none; stroke-linecap: butt; stroke-dashoffset: 0; stroke-linejoin: miter; stroke-miterlimit: 4; fill: rgb(0,0,0); fill-rule: nonzero; opacity: 1;" vector-effect="non-scaling-stroke"  transform=" translate(-413.86, -183.47)" d="M 409.6 196.267 C 409.6 200.986 413.41400000000004 204.79999999999998 418.13300000000004 204.79999999999998 C 422.85200000000003 204.79999999999998 426.66600000000005 200.986 426.66600000000005 196.267 C 426.66600000000005 187.094 426.66600000000005 175.668 415.63200000000006 164.642 C 412.2950000000001 161.305 406.90200000000004 161.305 403.5660000000001 164.642 C 400.2290000000001 167.97 400.2290000000001 173.37199999999999 403.5660000000001 176.708 C 409.6 182.741 409.6 188.416 409.6 196.267 z" stroke-linecap="round" />
</g>
		<g transform="matrix(1 0 0 1 63.99 76.77)" id="Q5CTZ3aKgwQbTjQGIeVKt"  >
<path style="stroke: none; stroke-width: 1; stroke-dasharray: none; stroke-linecap: butt; stroke-dashoffset: 0; stroke-linejoin: miter; stroke-miterlimit: 4; fill: rgb(0,0,0); fill-rule: nonzero; opacity: 1;" vector-effect="non-scaling-stroke"  transform=" translate(-319.99, -332.77)" d="M 334.993 332.305 C 337.092 328.175 335.445 323.208 331.358 321.024 C 327.271 318.822 322.133 320.401 319.847 324.437 C 319.83799999999997 324.463 318.84 326.212 316.894 327.33 C 315.034 328.405 313.105 328.45599999999996 312.909 328.45599999999996 C 308.028 328.42199999999997 304.33299999999997 331.878 304.086 336.537 C 303.839 341.239 307.44800000000004 345.25 312.159 345.506 C 312.32099999999997 345.515 312.577 345.52299999999997 312.92699999999996 345.52299999999997 C 314.99199999999996 345.52299999999997 320.12899999999996 345.17299999999994 325.42799999999994 342.10999999999996 C 331.614 338.534 334.481 333.321 334.993 332.305 z" stroke-linecap="round" />
</g>
		<g transform="matrix(1 0 0 1 43.53 122.9)" id="BzuAh90_qYbbY0t4qrKnT"  >
<path style="stroke: none; stroke-width: 1; stroke-dasharray: none; stroke-linecap: butt; stroke-dashoffset: 0; stroke-linejoin: miter; stroke-miterlimit: 4; fill: rgb(0,0,0); fill-rule: nonzero; opacity: 1;" vector-effect="non-scaling-stroke"  transform=" translate(-299.53, -378.9)" d="M 290.662 372.25 C 286.131 371.038 281.43699999999995 373.726 280.217 378.283 C 278.988 382.831 281.702 387.507 286.25 388.728 C 289.851 389.692 293.162 390.10200000000003 296.208 390.10200000000003 C 305.927 390.10200000000003 313.095 385.97200000000004 319.137 382.482 L 310.612 367.70200000000006 C 303.812 371.618 298.923 374.46 290.662 372.25 z" stroke-linecap="round" />
</g>
		<g transform="matrix(1 0 0 1 -38.4 123.73)" id="_u1kFz140e_ggaiTo7Dh5"  >
<path style="stroke: none; stroke-width: 1; stroke-dasharray: none; stroke-linecap: butt; stroke-dashoffset: 0; stroke-linejoin: miter; stroke-miterlimit: 4; fill: rgb(0,0,0); fill-rule: nonzero; opacity: 1;" vector-effect="non-scaling-stroke"  transform=" translate(-217.6, -379.73)" d="M 230.4 392.533 C 235.119 392.533 238.933 388.71000000000004 238.933 384 C 238.933 379.28999999999996 235.119 375.467 230.4 375.467 C 222.541 375.467 216.866 375.467 210.833 369.43399999999997 C 207.49699999999999 366.09799999999996 202.103 366.09799999999996 198.767 369.43399999999997 C 195.43 372.77099999999996 195.43 378.164 198.767 381.49999999999994 C 209.801 392.533 221.227 392.533 230.4 392.533 z" stroke-linecap="round" />
</g>
		<g transform="matrix(1 0 0 1 -64.06 76.72)" id="DkJKrvEFguvVYmcqH_WTR"  >
<path style="stroke: none; stroke-width: 1; stroke-dasharray: none; stroke-linecap: butt; stroke-dashoffset: 0; stroke-linejoin: miter; stroke-miterlimit: 4; fill: rgb(0,0,0); fill-rule: nonzero; opacity: 1;" vector-effect="non-scaling-stroke"  transform=" translate(-191.94, -332.72)" d="M 199.834 345.506 C 204.46800000000002 345.25899999999996 207.949 341.359 207.81300000000002 336.72499999999997 C 207.668 332.10799999999995 203.78500000000003 328.45599999999996 199.17700000000002 328.45599999999996 L 199.109 328.45599999999996 L 199.1 328.45599999999996 C 199.023 328.45599999999996 197.035 328.43899999999996 195.09799999999998 327.32099999999997 C 193.255 326.25399999999996 192.248 324.62399999999997 192.14499999999998 324.445 C 189.969 320.341 184.88299999999998 318.719 180.74399999999997 320.844 C 176.54599999999996 322.986 174.86499999999998 328.123 176.99799999999996 332.32099999999997 C 177.51899999999995 333.328 180.39399999999995 338.542 186.56399999999996 342.09999999999997 C 191.87199999999996 345.17199999999997 196.99999999999997 345.522 199.06499999999997 345.522 C 199.416 345.523 199.671 345.515 199.834 345.506 z" stroke-linecap="round" />
</g>
		<g transform="matrix(1 0 0 1 -0.03 95.02)" id="JSPbMix2WSuBgS9vCiOC-"  >
<path style="stroke: none; stroke-width: 1; stroke-dasharray: none; stroke-linecap: butt; stroke-dashoffset: 0; stroke-linejoin: miter; stroke-miterlimit: 4; fill: rgb(0,0,0); fill-rule: nonzero; opacity: 1;" vector-effect="non-scaling-stroke"  transform=" translate(-255.97, -351.02)" d="M 242.816 357.018 C 243.763 357.64099999999996 248.858 360.71299999999997 256 360.71299999999997 C 263.142 360.71299999999997 268.237 357.64099999999996 269.184 357.018 C 273.07500000000005 354.49199999999996 274.14200000000005 349.381 271.701 345.438 C 269.26000000000005 341.48699999999997 264.012 340.258 260.036 342.622 C 260.019 342.63100000000003 258.261 343.646 256 343.646 C 253.858 343.646 252.169 342.733 251.981 342.63100000000003 C 248.039 340.156 242.85 341.30800000000005 240.307 345.21700000000004 C 237.739 349.167 238.865 354.458 242.816 357.018 z" stroke-linecap="round" />
</g>
</g>
</g>
</svg>