<?xml version="1.0" encoding="iso-8859-1"?>
<!-- Uploaded to: SVG Repo, www.svgrepo.com, Generator: SVG Repo Mixer Tools -->
<svg height="800px" width="800px" version="1.1" id="Layer_1" xmlns="http://www.w3.org/2000/svg" xmlns:xlink="http://www.w3.org/1999/xlink" 
	 viewBox="0 0 501.76 501.76" xml:space="preserve">
<g transform="translate(3 1)">
	<path style="fill:#ECF4F7;" d="M353.517,30.573c3.413,1.707,23.893,11.947,12.8,39.253c-31.573-5.12-70.827-7.68-119.467-7.68
		c-45.227,0-81.92,2.56-111.787,6.827c-15.36-26.453,3.413-36.693,5.12-37.547c9.387-5.12,19.627-5.973,29.013-2.56
		c4.267-9.387,11.947-16.213,22.187-19.627c10.24-2.56,20.48,0,29.013,5.12c5.973-7.68,15.36-12.8,26.453-12.8
		c11.093,0,20.48,5.12,26.453,12.8c8.533-5.973,18.773-8.533,29.013-5.12c10.24,2.56,17.92,10.24,22.187,19.627
		C333.89,24.6,344.13,24.6,353.517,30.573z M220.397,415.427c-7.68,5.973-18.773,8.533-29.013,5.12
		c-10.24-2.56-17.92-10.24-22.187-18.773c-9.387,3.413-19.627,3.413-29.013-2.56c-9.387-5.12-15.36-14.507-16.213-23.893
		c-10.24,0.853-20.48-1.707-28.16-9.387c-7.68-7.68-11.093-17.92-9.387-27.307c-9.387-1.707-18.773-6.827-23.893-16.213
		c-5.12-9.387-5.973-19.627-2.56-29.013c-9.387-4.267-16.213-11.947-18.773-22.187c-2.56-10.24,0-20.48,5.12-29.013
		c-7.68-5.973-12.8-15.36-12.8-26.453c0-11.093,5.12-20.48,12.8-26.453c-5.973-7.68-12.8-33.28,4.267-50.347v-2.56
		c16.213,0,34.133-6.827,51.2-15.36l34.133-17.067v17.067c0,85.333,42.667,170.667,110.933,170.667s110.933-85.333,110.933-170.667
		V103.96l34.133,17.067c17.067,8.533,35.84,14.507,51.2,15.36v2.56c17.067,17.067,10.24,42.667,4.267,50.347
		c7.68,5.973,12.8,15.36,12.8,26.453c0,11.093-5.12,20.48-12.8,26.453c5.973,7.68,8.533,18.773,5.12,29.013
		c-2.56,10.24-10.24,17.92-19.627,22.187c3.413,9.387,3.413,19.627-2.56,29.013c-5.12,9.387-14.507,15.36-23.893,16.213
		c0.853,10.24-1.707,20.48-9.387,27.307c-7.68,7.68-17.92,11.093-28.16,9.387c-1.707,9.387-6.827,18.773-16.213,23.893
		c-9.387,5.12-19.627,5.973-29.013,2.56c-4.267,9.387-11.947,16.213-22.187,18.773c-10.24,2.56-20.48,0-29.013-5.12
		c-5.973,7.68-15.36,12.8-26.453,12.8C236.61,428.227,226.37,423.107,220.397,415.427z"/>
	<path style="fill:#AAB1BA;" d="M298.05,453.827h8.533c9.387,0,17.067,7.68,17.067,17.067l0,0v25.6h-51.2v-25.6l0,0
		c0-9.387,7.68-17.067,17.067-17.067H298.05z M195.65,453.827h8.533c9.387,0,17.067,7.68,17.067,17.067l0,0v25.6h-51.2v-25.6l0,0
		c0-9.387,7.68-17.067,17.067-17.067H195.65z"/>
	<path style="fill:#F2EDDA;" d="M135.063,68.12c29.867-4.267,66.56-6.827,111.787-6.827c48.64,0,87.893,2.56,119.467,7.68
		c62.293,9.387,93.867,26.453,110.933,43.52c-4.267,17.067-17.92,23.893-34.133,23.893c-15.36,0-34.987-6.827-51.2-15.36
		l-34.133-17.067v17.067c0,85.333-42.667,170.667-110.933,170.667S135.917,206.36,135.917,121.027V103.96l-34.133,17.067
		c-17.067,8.533-35.84,14.507-51.2,15.36c-16.213,0-29.867-5.973-34.133-23.893C34.37,94.573,67.65,77.507,135.063,68.12"/>
	<g>
		<path style="fill:#AE938D;" d="M289.517,129.56c5.12,0,8.533,4.267,8.533,8.533c0,4.267-3.413,8.533-8.533,8.533
			s-8.533-4.267-8.533-8.533C280.983,133.827,284.397,129.56,289.517,129.56z M204.183,129.56c5.12,0,8.533,4.267,8.533,8.533
			c0,4.267-3.413,8.533-8.533,8.533c-5.12,0-8.533-4.267-8.533-8.533C195.65,133.827,199.063,129.56,204.183,129.56z"/>
		<path style="fill:#AE938D;" d="M272.45,197.827c0,12.8-11.093,25.6-25.6,25.6s-25.6-12.8-25.6-25.6
			c0-4.267,3.413-8.533,8.533-8.533h34.133C269.037,189.294,272.45,192.707,272.45,197.827"/>
	</g>
</g>
<path style="fill:#51565F;" d="M326.65,501.76h-51.2c-2.56,0-4.267-1.707-4.267-4.267v-25.6v-0.853
	c0-11.093,9.387-20.48,21.333-20.48h4.267v-23.04c-6.827,0-13.653-1.707-19.627-5.12c-6.827,7.68-17.067,11.093-27.307,11.093
	s-19.627-4.267-27.307-11.093c-5.973,3.413-12.8,5.12-19.627,5.12v23.04h4.267c11.093,0,21.333,9.387,21.333,20.48v0.853v25.6
	c0,2.56-1.707,4.267-4.267,4.267h-51.2c-2.56,0-4.267-1.707-4.267-4.267v-25.6v-0.853c0-11.093,9.387-20.48,21.333-20.48h4.267
	v-23.893h-0.853c-10.24-2.56-17.92-9.387-23.04-17.92c-10.24,2.56-20.48,1.707-29.013-3.413c-8.533-5.12-15.36-13.653-17.92-23.893
	l0,0c-10.24,0-19.627-4.267-27.307-11.093c-6.827-7.68-11.093-17.067-11.093-27.307c-10.24-2.56-18.773-8.533-23.893-17.92
	c-5.12-8.533-5.973-19.627-3.413-29.013c-8.533-5.12-15.36-13.653-17.92-23.04c-2.56-10.24-0.853-20.48,4.267-29.013
	c-7.68-6.827-11.093-17.067-11.093-27.307c0-10.24,4.267-19.627,11.093-27.307c-5.12-8.533-6.827-19.627-4.267-29.013
	c0.853-2.56,2.56-3.413,5.12-3.413c2.56,0.853,3.413,2.56,3.413,5.12c-2.56,8.533-0.853,17.92,5.12,25.6
	c1.707,1.707,0.853,4.267-0.853,5.973c-6.827,5.973-11.093,14.507-11.093,23.04s4.267,17.067,11.093,23.04
	c1.707,1.707,1.707,4.267,0.853,5.973c-5.12,7.68-6.827,16.213-5.12,25.6c2.56,8.533,8.533,15.36,17.067,19.627
	c1.707,0.853,3.413,3.413,2.56,5.12c-3.413,8.533-2.56,17.92,1.707,25.6c4.267,7.68,11.947,12.8,21.333,14.507
	c2.56,0,3.413,2.56,3.413,4.267c-0.853,9.387,1.707,17.92,8.533,23.893c5.973,5.973,15.36,9.387,23.893,8.533
	c2.56,0,4.267,1.707,4.267,3.413c1.707,9.387,6.827,17.067,14.507,21.333c7.68,4.267,17.067,5.12,25.6,1.707
	c2.56-0.853,4.267,0,5.12,2.56c3.413,8.533,11.093,14.507,19.627,17.067c0.853,0,2.56,0.853,3.413,0.853c0,0,0,0,0.853,0
	c7.68,0.853,15.36-0.853,21.333-5.973c1.707-1.707,4.267-0.853,5.973,0.853c5.973,6.827,14.507,11.093,23.04,11.093
	c8.533,0,17.067-4.267,23.04-11.093c1.707-1.707,4.267-1.707,5.973-0.853c5.973,4.267,13.653,6.827,21.333,5.973l0,0
	c0.853,0,2.56,0,3.413-0.853c8.533-2.56,15.36-8.533,19.627-17.067c0.853-1.707,3.413-3.413,5.12-2.56
	c8.533,3.413,17.92,2.56,25.6-1.707c7.68-4.267,12.8-11.947,14.507-21.333c0-2.56,2.56-4.267,4.267-3.413
	c9.387,0.853,17.92-1.707,23.893-8.533c5.973-5.973,9.387-15.36,8.533-23.893c0-2.56,1.707-4.267,3.413-4.267
	c9.387-1.707,17.067-6.827,21.333-14.507c4.267-7.68,5.12-17.067,1.707-25.6c-0.853-1.707,0-4.267,2.56-5.12
	c8.533-3.413,14.507-11.093,17.067-19.627s0.853-17.92-5.12-24.747c-1.707-1.707-0.853-4.267,0.853-5.973
	c6.827-5.973,11.093-14.507,11.093-23.04c0-8.533-4.267-17.067-11.093-23.04c-1.707-1.707-1.707-4.267-0.853-5.973
	c5.12-7.68,6.827-16.213,5.12-25.6c-0.853-2.56,0.853-4.267,3.413-5.12c2.56-0.853,4.267,0.853,5.12,3.413
	c2.56,10.24,0.853,20.48-4.267,29.013c7.68,6.827,11.093,17.067,11.093,27.307c0,10.24-4.267,19.627-11.093,27.307
	c5.12,8.533,6.827,19.627,4.267,29.013c-2.56,10.24-9.387,17.92-17.92,23.04c2.56,10.24,1.707,20.48-3.413,29.013
	c-5.12,8.533-13.653,15.36-23.893,17.92c0,10.24-4.267,20.48-11.093,27.307c-6.827,6.827-17.067,11.093-27.307,11.093l0,0
	c-2.56,10.24-8.533,18.773-17.92,23.893c-8.533,5.12-19.627,5.973-29.013,3.413c-5.12,8.533-13.653,15.36-23.04,17.92h-0.853v23.893
	h4.267c11.947,0,21.333,9.387,21.333,20.48v0.853v25.6C330.917,500.053,329.21,501.76,326.65,501.76z M279.717,493.227h42.667
	v-21.333l0,0c0-6.827-5.973-12.8-12.8-12.8h-17.067c-6.827,0-12.8,5.12-12.8,12.8V493.227z M177.317,493.227h42.667v-21.333l0,0
	c0-6.827-5.973-12.8-12.8-12.8h-17.067c-6.827,0-12.8,5.12-12.8,12.8V493.227z M224.25,382.294c-8.533,0-18.773,0-29.013-9.387
	c-1.707-1.707-1.707-4.267,0-5.973c1.707-1.707,4.267-1.707,5.973,0c7.68,7.68,14.507,7.68,22.187,7.68
	c2.56,0,4.267,1.707,4.267,4.267C227.663,381.44,226.81,382.294,224.25,382.294z M289.957,379.734c-2.56,0-5.973,0-8.533-0.853
	c-2.56-0.853-3.413-2.56-3.413-5.12c0.853-2.56,2.56-3.413,5.12-3.413c10.24,2.56,16.213-0.853,23.04-5.12l4.267,7.68
	C305.317,376.32,298.49,379.734,289.957,379.734z M249.85,350.72c-5.973,0-10.24-2.56-11.093-3.413
	c-1.707-1.707-2.56-4.267-0.853-5.973c0.853-1.707,4.267-2.56,5.973-0.853c0,0,2.56,1.707,5.973,1.707
	c3.413,0,5.973-1.707,5.973-1.707c1.707-1.707,4.267-0.853,5.973,0.853c1.707,1.707,0.853,4.267-0.853,5.973
	C260.09,348.16,255.823,350.72,249.85,350.72z M146.597,348.16c-0.853,0-1.707,0-1.707-0.853c-7.68-4.267-16.213-9.387-19.627-23.04
	c-0.853-2.56,0.853-4.267,3.413-5.12c2.56-0.853,4.267,0.853,5.12,3.413c2.56,10.24,8.533,13.653,16.213,17.92
	c1.707,0.853,2.56,3.413,1.707,5.973C149.157,347.307,148.303,348.16,146.597,348.16z M353.103,348.16
	c-1.707,0-2.56-0.853-3.413-2.56c-0.853-1.707-0.853-4.267,1.707-5.973c6.827-4.267,13.653-7.68,16.213-17.92
	c0.853-2.56,2.56-3.413,5.12-3.413c2.56,0.853,3.413,2.56,3.413,5.12c-3.413,13.653-11.947,18.773-19.627,23.04
	C354.81,347.307,353.957,348.16,353.103,348.16z M307.023,335.36C306.17,335.36,306.17,335.36,307.023,335.36
	c-2.56,0-4.267-2.56-4.267-4.267c0-2.56,1.707-4.267,4.267-4.267c0,0,3.413,0,5.973-1.707c3.413-1.707,4.267-4.267,4.267-4.267
	c0.853-1.707,3.413-2.56,5.973-1.707c1.707,0.853,2.56,3.413,1.707,5.973c0,0.853-2.56,5.12-7.68,7.68
	C312.997,335.36,307.877,335.36,307.023,335.36z M192.677,335.36c-1.707,0-5.973,0-10.24-2.56c-5.12-3.413-7.68-7.68-7.68-7.68
	c-0.853-1.707,0-4.267,1.707-5.973c1.707-0.853,4.267,0,5.973,1.707c0,0,1.707,2.56,4.267,4.267
	c3.413,1.707,5.973,1.707,5.973,1.707c2.56,0,4.267,1.707,4.267,4.267C197.797,332.8,196.09,335.36,192.677,335.36
	C193.53,335.36,193.53,335.36,192.677,335.36z M249.85,296.96c-72.533,0-115.2-88.747-115.2-174.933V104.96
	c0-2.56,1.707-4.267,4.267-4.267c2.56,0,4.267,1.707,4.267,4.267v17.067c0,81.92,40.107,166.4,106.667,166.4
	s106.667-84.48,106.667-166.4V104.96c0-2.56,1.707-4.267,4.267-4.267s4.267,1.707,4.267,4.267v17.067
	C365.05,208.214,322.383,296.96,249.85,296.96z M356.517,291.84c-1.707,0-3.413-0.853-3.413-2.56c-0.853-1.707,0-4.267,1.707-5.973
	c0,0,2.56-1.707,4.267-4.267c1.707-3.413,1.707-5.973,1.707-5.973c0-2.56,1.707-4.267,4.267-4.267s4.267,1.707,4.267,4.267
	c0,0.853,0,5.973-2.56,11.093c-3.413,5.12-7.68,7.68-7.68,7.68C357.37,290.987,357.37,291.84,356.517,291.84z M143.183,291.84
	c-0.853,0-1.707,0-1.707-0.853c-0.853,0-5.12-2.56-7.68-7.68c-3.413-5.12-2.56-10.24-2.56-11.093c0-2.56,1.707-4.267,4.267-4.267
	s4.267,1.707,4.267,4.267c0,0,0,3.413,1.707,5.973c1.707,3.413,4.267,4.267,4.267,4.267c1.707,0.853,2.56,3.413,1.707,5.973
	C146.597,290.987,144.89,291.84,143.183,291.84z M403.45,279.04c-0.853,0-1.707,0-2.56-0.853c-1.707-0.853-2.56-3.413-1.707-5.973
	c4.267-6.827,7.68-13.653,5.12-23.04c-0.853-2.56,0.853-4.267,3.413-5.12c2.56-0.853,4.267,0.853,5.12,3.413
	c3.413,13.653-1.707,22.187-5.973,29.867C406.01,278.187,404.303,279.04,403.45,279.04z M96.25,279.04
	c-1.707,0-2.56-0.853-3.413-2.56c-4.267-7.68-9.387-16.213-5.973-29.867c0.853-2.56,2.56-3.413,5.12-3.413
	c2.56,0.853,3.413,2.56,3.413,5.12c-2.56,10.24,0.853,16.213,5.12,23.04c0.853,1.707,0.853,4.267-1.707,5.973
	C97.957,279.04,97.103,279.04,96.25,279.04z M258.383,254.294h-17.067c-1.707,0-3.413-0.853-4.267-2.56
	c-0.853-1.707,0-3.413,0.853-4.267l7.68-7.68v-11.093c-13.653-2.56-25.6-15.36-25.6-29.867c0-6.827,5.973-12.8,12.8-12.8h34.133
	c6.827,0,12.8,5.973,12.8,12.8c0,14.507-11.947,27.307-25.6,29.867v11.093l7.68,7.68c0.853,0.853,1.707,3.413,0.853,4.267
	C261.797,252.587,260.09,254.294,258.383,254.294z M232.783,194.56c-2.56,0-4.267,1.707-4.267,4.267
	c0,11.093,10.24,21.333,21.333,21.333c11.947,0,21.333-11.093,21.333-21.333c0-2.56-1.707-4.267-4.267-4.267H232.783z
	 M377.85,228.693c-0.853,0-1.707,0-2.56-0.853c-1.707-0.853-2.56-4.267-0.853-5.973c0,0,1.707-2.56,1.707-5.973
	c0-3.413-1.707-5.973-1.707-5.973c-1.707-1.707-0.853-4.267,0.853-5.973c1.707-1.707,4.267-0.853,5.973,0.853
	c0,0.853,3.413,5.12,3.413,11.093c0,5.973-2.56,10.24-3.413,11.093C380.41,227.84,379.557,228.693,377.85,228.693z M119.29,220.16
	c-2.56,0-4.267-1.707-4.267-4.267c0-5.973,2.56-10.24,3.413-11.093c1.707-1.707,4.267-2.56,5.973-0.853
	c1.707,0.853,2.56,4.267,0.853,5.973c0,0-1.707,2.56-1.707,5.973C123.557,218.453,121.85,220.16,119.29,220.16z M411.983,194.56
	c-2.56,0-4.267-1.707-4.267-4.267c0-8.533,0-15.36-7.68-22.187c-1.707-1.707-1.707-4.267,0-5.973s4.267-1.707,5.973,0
	c9.387,9.387,9.387,19.627,9.387,29.013C416.25,192.853,414.543,194.56,411.983,194.56z M87.717,194.56
	c-2.56,0-4.267-1.707-4.267-4.267c0-8.533,0-18.773,9.387-29.013c1.707-1.707,4.267-1.707,5.973,0s1.707,4.267,0,5.973
	c-7.68,7.68-7.68,14.507-7.68,22.187C91.983,192.853,90.277,194.56,87.717,194.56z M292.517,151.893c-6.827,0-12.8-5.973-12.8-12.8
	c0-6.827,5.973-12.8,12.8-12.8s12.8,5.973,12.8,12.8C305.317,145.92,299.343,151.893,292.517,151.893z M292.517,134.827
	c-2.56,0-4.267,1.707-4.267,4.267c0,2.56,1.707,4.267,4.267,4.267s4.267-1.707,4.267-4.267
	C296.783,136.534,295.077,134.827,292.517,134.827z M207.183,151.893c-6.827,0-12.8-5.973-12.8-12.8c0-6.827,5.973-12.8,12.8-12.8
	s12.8,5.973,12.8,12.8C219.983,145.92,214.01,151.893,207.183,151.893z M207.183,134.827c-2.56,0-4.267,1.707-4.267,4.267
	c0,2.56,1.707,4.267,4.267,4.267s4.267-1.707,4.267-4.267C211.45,136.534,209.743,134.827,207.183,134.827z M446.97,141.653
	c-20.48,0-43.52-10.24-54.613-15.36c-1.707-0.853-2.56-3.413-1.707-5.973c0.853-1.707,3.413-2.56,5.973-1.707
	c27.307,13.653,52.053,17.92,65.707,11.947c5.973-2.56,10.24-7.68,12.8-15.36c-34.133-32.427-110.08-48.64-225.28-48.64
	c-115.2,0-191.147,16.213-225.28,48.64c2.56,6.827,6.827,11.947,12.8,15.36c13.653,6.827,38.4,1.707,65.707-11.947
	c1.707-0.853,4.267,0,5.973,1.707c0.853,1.707,0,4.267-1.707,5.973C92.837,133.12,57.85,148.48,33.957,138.24
	c-9.387-4.267-15.36-11.947-17.92-23.04c0-1.707,0-3.413,0.853-4.267C51.877,75.947,130.383,58.88,250.703,58.88
	S449.53,76.8,484.517,110.933c0.853,0.853,1.707,2.56,0.853,4.267c-2.56,11.093-8.533,18.773-17.92,23.04
	C460.623,139.947,453.797,141.653,446.97,141.653z M364.197,41.814c-0.853,0-2.56-0.853-3.413-1.707
	c-1.707-2.56-4.267-4.267-6.827-5.12c-7.68-4.267-17.067-5.12-25.6-1.707c-1.707,0.853-4.267,0-5.12-2.56
	c-3.413-8.533-11.093-14.507-19.627-17.067s-17.92-0.853-25.6,5.12c-1.707,1.707-4.267,0.853-5.973-0.853
	c-5.973-6.827-14.507-11.093-23.04-11.093c-8.533,0-17.067,4.267-23.04,11.093c-1.707,1.707-4.267,1.707-5.973,0.853
	c-7.68-5.12-16.213-6.827-25.6-5.12c-8.533,2.56-15.36,8.533-19.627,17.067c-0.853,1.707-3.413,3.413-5.12,2.56
	c-8.533-3.413-17.92-2.56-25.6,1.707c-1.707,0.853-3.413,2.56-5.12,4.267s-4.267,1.707-5.973,0c-1.707-1.707-1.707-4.267,0-5.973
	c1.707-1.707,4.267-3.413,6.827-5.12c8.533-5.12,19.627-5.973,29.013-3.413c5.12-8.533,13.653-15.36,23.04-17.92
	c10.24-2.56,20.48-0.853,29.013,4.267C227.663,3.413,237.903,0,248.143,0c10.24,0,19.627,4.267,27.307,11.093
	c8.533-5.12,19.627-6.827,29.013-4.267c10.24,2.56,17.92,9.387,23.04,17.92c10.24-2.56,20.48-1.707,29.013,3.413
	c3.413,1.707,5.973,4.267,8.533,6.827c1.707,1.707,1.707,4.267,0,5.973C366.757,40.96,365.05,41.814,364.197,41.814z"/>
</svg>