<?xml version="1.0" encoding="UTF-8"?>
<!DOCTYPE svg PUBLIC "-//W3C//DTD SVG 1.1//EN" "http://www.w3.org/Graphics/SVG/1.1/DTD/svg11.dtd">
<!-- Creator: CorelDRAW -->
<svg xmlns="http://www.w3.org/2000/svg" xml:space="preserve" width="50.3208mm" height="16.6898mm" version="1.1" style="shape-rendering:geometricPrecision; text-rendering:geometricPrecision; image-rendering:optimizeQuality; fill-rule:evenodd; clip-rule:evenodd"
viewBox="0 0 1438.29 477.04"
 xmlns:xlink="http://www.w3.org/1999/xlink"
 xmlns:xodm="http://www.corel.com/coreldraw/odm/2003">
 <defs>
  <style type="text/css">
   <![CDATA[
    .fil0 {fill:#D5E8D5;fill-rule:nonzero}
   ]]>
  </style>
 </defs>
 <g id="Слой_x0020_1">
  <metadata id="CorelCorpID_0Corel-Layer"/>
  <path class="fil0" d="M232.19 99.04c-9.43,0 -24.09,-1.04 -44,-3.24 -19.22,-2.19 -33.83,-3.24 -44,-3.03 0.49,23.3 2.1,64.78 4.81,124.33 2.53,52.65 3.76,94.34 3.76,124.95 0,7 0.43,17.24 1.29,30.92 0.8,13.69 1.23,24.03 1.23,31.03 0,15.25 -1.85,29.05 -5.55,41.27 -4.93,15.78 -11.95,23.61 -21.07,23.61 -6.59,0 -12.38,-3.55 -17.44,-10.76 -5.61,-7.94 -8.44,-17.97 -8.44,-29.98 0,-2.82 0.25,-7.21 0.74,-12.96 0.49,-5.85 0.74,-10.34 0.74,-13.37 0,-9.4 -0.37,-23.61 -1.17,-42.52 -0.74,-19.02 -1.17,-33.33 -1.17,-42.94 0,-27.37 -1.23,-64.36 -3.76,-111.16 -2.84,-53.7 -4.5,-90.79 -4.99,-111.16l-9.37 0c-26.8,0 -48.06,-3.14 -63.78,-9.4 -13.37,-5.54 -20.03,-18.8 -20.03,-40.01 0,-10.34 2.16,-19.75 6.47,-28 5.11,-10.03 11.71,-14.52 19.9,-13.48 4.19,0.42 13.81,1.99 28.72,4.91 11.89,2.09 21.57,3.24 28.9,3.24 7.33,0 18.3,-0.21 32.97,-0.63 14.6,-0.42 25.57,-0.63 32.9,-0.63 9.18,0 22.93,1.04 41.23,3.13 18.3,2.09 31.98,3.14 41.16,3.14 7.21,0 13.25,3.97 18.12,11.91 4.87,7.94 7.33,17.66 7.33,29.25 0,11.7 -2.47,21.52 -7.33,29.57 -4.87,8.04 -10.97,12.01 -18.18,12.01z"/>
  <path id="_1" class="fil0" d="M481.2 475.78c-9.49,-0.63 -19.1,-19.64 -28.71,-57.04 -6.35,-24.14 -11.83,-51.93 -16.39,-83.37 -8.93,2.3 -23.6,4.6 -43.87,6.9 -19.1,2.3 -33.71,5.01 -43.81,8.15 -5.61,22.46 -15.22,56.31 -29.03,101.44 -5.3,14.73 -12.57,22.05 -21.93,22.05 -6.59,0 -12.57,-3.87 -17.81,-11.49 -5.3,-7.63 -7.95,-17.45 -7.95,-29.25 0,-10.45 8.81,-45.76 26.44,-106.04 -1.73,-6.37 -2.4,-12.33 -2.22,-17.87 0.49,-9.72 6.35,-17.45 17.56,-22.99 17.13,-50.25 36.17,-102.39 57.18,-156.29 30.13,-77.42 48.74,-116.18 55.71,-116.18 13.19,0 22.06,13.58 26.5,40.74 2.4,21.84 6.23,54.64 11.4,98.31 7.33,58.82 16.27,126.1 26.87,201.95 0.86,5.64 3.94,19.12 9.24,40.43 4.31,17.55 6.47,30.71 6.47,39.49 0,11.8 -2.59,21.73 -7.83,29.77 -5.24,7.94 -11.22,11.7 -17.81,11.28zm-67.29 -314.26c-9.37,27.37 -22.31,64.67 -38.82,111.79 5.42,-1.99 13.86,-3.66 25.26,-4.8 13.49,-1.46 21.94,-2.51 25.45,-3.34 -2.9,-26.54 -6.84,-61.12 -11.89,-103.64z"/>
  <path id="_2" class="fil0" d="M725.22 139.79c-10.85,0 -18.86,-9.72 -24.03,-29.05 -2.4,-9.09 -4.81,-14.63 -7.21,-16.51 -1.85,-1.36 -6.59,-2.09 -14.29,-2.09 -15.16,0 -32.66,20.06 -52.56,60.18 -27.79,56.1 -41.72,108.55 -41.72,157.45 0,22.36 4.37,41.48 13.19,57.46 8.75,15.98 19.29,23.92 31.61,23.92 11.89,0 23.97,-5.33 36.29,-15.98 4.31,-3.87 13.43,-13.9 27.42,-30.09 9.37,-10.66 16.51,-15.99 21.32,-15.99 7.21,0 13.37,4.49 18.42,13.48 4.68,8.36 7.03,17.97 7.03,28.73 0,12.12 -3.14,22.57 -9.37,31.55 -33.15,47.33 -66.86,71.04 -101.18,71.04 -27.11,0 -49.97,-16.72 -68.65,-50.25 -17.81,-32.28 -26.74,-70.31 -26.74,-113.98 0,-68.43 17.62,-138.32 52.93,-209.58 30.01,-60.49 60.63,-90.69 92,-90.69 5.3,0 10.04,0.31 14.36,0.94 4.25,0.63 8.01,1.46 11.28,2.72 5.3,-8.67 11.71,-13.06 19.16,-13.06 12.26,0 19.84,11.91 22.74,35.73 2.03,17.03 3.08,36.98 3.08,59.76 0,10.24 -1.72,19.43 -5.24,27.79 -4.56,10.97 -11.22,16.51 -19.84,16.51z"/>
  <path id="_3" class="fil0" d="M988.65 99.04c-9.43,0 -24.09,-1.04 -44,-3.24 -19.22,-2.19 -33.83,-3.24 -44,-3.03 0.49,23.3 2.1,64.78 4.81,124.33 2.53,52.65 3.76,94.34 3.76,124.95 0,7 0.43,17.24 1.29,30.92 0.8,13.69 1.23,24.03 1.23,31.03 0,15.25 -1.85,29.05 -5.55,41.27 -4.93,15.78 -11.95,23.61 -21.07,23.61 -6.59,0 -12.38,-3.55 -17.44,-10.76 -5.61,-7.94 -8.44,-17.97 -8.44,-29.98 0,-2.82 0.25,-7.21 0.74,-12.96 0.49,-5.85 0.74,-10.34 0.74,-13.37 0,-9.4 -0.37,-23.61 -1.17,-42.52 -0.74,-19.02 -1.17,-33.33 -1.17,-42.94 0,-27.37 -1.23,-64.36 -3.76,-111.16 -2.84,-53.7 -4.5,-90.79 -4.99,-111.16l-9.37 0c-26.8,0 -48.06,-3.14 -63.78,-9.4 -13.37,-5.54 -20.03,-18.8 -20.03,-40.01 0,-10.34 2.16,-19.75 6.47,-28 5.11,-10.03 11.71,-14.52 19.9,-13.48 4.19,0.42 13.81,1.99 28.72,4.91 11.89,2.09 21.57,3.24 28.9,3.24 7.33,0 18.3,-0.21 32.97,-0.63 14.6,-0.42 25.57,-0.63 32.9,-0.63 9.18,0 22.93,1.04 41.23,3.13 18.3,2.09 31.98,3.14 41.16,3.14 7.21,0 13.25,3.97 18.12,11.91 4.87,7.94 7.33,17.66 7.33,29.25 0,11.7 -2.47,21.52 -7.33,29.57 -4.87,8.04 -10.97,12.01 -18.18,12.01z"/>
  <path id="_4" class="fil0" d="M1180.66 104.06c-5.79,0 -21.63,-2.72 -47.51,-8.15 -1.6,37.51 -2.4,87.45 -2.4,149.72l-0.19 137.38c16.02,-0.63 32.29,-0.94 48.86,-0.94 7.21,0 13.19,4.08 17.93,12.33 4.74,8.15 7.15,17.97 7.15,29.36 0,11.49 -2.4,21.21 -7.27,29.25 -4.87,8.05 -10.97,12.12 -18.36,12.12 -6.9,0 -17.25,0.21 -30.99,0.73 -13.8,0.52 -24.1,0.73 -31,0.73 -8.13,0 -20.33,1.77 -36.54,5.22 -16.2,3.45 -28.41,5.22 -36.54,5.22 -7.39,0 -13.5,-3.97 -18.36,-12.01 -4.87,-8.05 -7.27,-17.76 -7.27,-29.25 0,-11.39 2.53,-21.1 7.64,-29.25 5.05,-8.15 11.46,-12.22 19.16,-12.22 8.75,0 20.27,-1.46 34.57,-4.39 -0.25,-24.14 -0.37,-70.31 -0.37,-138.64 0,-55.58 1.23,-108.65 3.7,-159.12l-39.19 1.25c-7.27,0 -13.31,-3.97 -18.18,-11.81 -4.87,-7.94 -7.33,-17.76 -7.33,-29.46 0,-11.91 2.34,-21.63 7.03,-29.15 4.31,-6.79 9.61,-10.76 15.9,-11.8 10.29,-1.57 28.1,-2.4 53.55,-2.4 22.86,0 52.31,4.18 88.36,12.54 14.36,3.45 21.51,17.55 21.51,42.31 0,13.06 -2.77,23.4 -8.32,30.93 -4.56,6.37 -9.74,9.51 -15.53,9.51z"/>
  <path id="_5" class="fil0" d="M1413.21 139.79c-10.84,0 -18.86,-9.72 -24.03,-29.05 -2.4,-9.09 -4.81,-14.63 -7.21,-16.51 -1.85,-1.36 -6.59,-2.09 -14.29,-2.09 -15.16,0 -32.66,20.06 -52.56,60.18 -27.79,56.1 -41.72,108.55 -41.72,157.45 0,22.36 4.37,41.48 13.19,57.46 8.75,15.98 19.29,23.92 31.61,23.92 11.89,0 23.97,-5.33 36.29,-15.98 4.31,-3.87 13.43,-13.9 27.42,-30.09 9.37,-10.66 16.51,-15.99 21.32,-15.99 7.21,0 13.37,4.49 18.42,13.48 4.68,8.36 7.03,17.97 7.03,28.73 0,12.12 -3.14,22.57 -9.37,31.55 -33.15,47.33 -66.86,71.04 -101.18,71.04 -27.11,0 -49.97,-16.72 -68.65,-50.25 -17.81,-32.28 -26.74,-70.31 -26.74,-113.98 0,-68.43 17.62,-138.32 52.93,-209.58 30.01,-60.49 60.63,-90.69 92,-90.69 5.3,0 10.04,0.31 14.36,0.94 4.25,0.63 8.01,1.46 11.28,2.72 5.3,-8.67 11.71,-13.06 19.16,-13.06 12.26,0 19.84,11.91 22.74,35.73 2.04,17.03 3.08,36.98 3.08,59.76 0,10.24 -1.72,19.43 -5.24,27.79 -4.56,10.97 -11.21,16.51 -19.84,16.51z"/>
 </g>
</svg>
